<?xml version="1.0" encoding="UTF-8"?>
<svg id="Layer_1" xmlns="http://www.w3.org/2000/svg" version="1.1" viewBox="0 0 50 50">
  <!-- Generator: Adobe Illustrator 29.5.1, SVG Export Plug-In . SVG Version: 2.1.0 Build 141)  -->
  <defs>
    <style>
      .st0 {
        fill: #f1e02b;
      }

      .st0, .st1 {
        fill-rule: evenodd;
      }

      .st1 {
        stroke: #fff;
        stroke-miterlimit: 10;
      }
    </style>
  </defs>
  <path class="st0" d="M448.69,117.05c-.7,2.6-3.1,3.7-4.3,5.7-.53,1.8-1.07,3.63-1.6,5.5-2.8,5-9.5,9.9-14.5,12.9-5.5,3.2-12.1,1-16.5-1.6-7-4.2-14.9-8.8-19.5-15.4-1.13-2.33-2.27-4.7-3.4-7.1h-.2v.5c-.2.87-.37,1.77-.5,2.7-.47-.27-.93-.57-1.4-.9,4.6,9.2,5,23.3,2.1,34.7-16.8,6.7-36.2-3.3-43.5-12.9-2.4-3.2-6-7.9-4.8-14.3.8-3.8,3-6.5,4.8-9.3-2,.4-7.2,1.3-9.8.4-1.93-1.53-3.87-3.1-5.8-4.7-9.2-7.3-15.4-17.8-24.7-24.9-3.3-2.5-12.3-8.6-8.7-14.5,8.6-3.5,20.2-.4,27.9,2.2,13.9,4.9,27.3,10,39.2,17,4.47,3,8.93,5.97,13.4,8.9h.2v-1.4c-1.1-2.5-3.6-4.8-3.2-7.9.27-.27.5-.57.7-.9.47.07.93.13,1.4.2,3.1,1.7,2.4,6.7,5.9,8.4h.2c3.1-21.2,18.8-41.9,29.9-56,5.5-7,9.7-12.4,18.3-16.5,8.3,0,9.6,9.5,8.2,18.1-1.3,8.3-1.2,17.5-1.1,26.8.2,2.5.4,5.1.7,7.7-1,3.8-6.6,8-10.7,8.8.07.13.13.27.2.4,12.4.8,18.4,5.7,20.9,16.8.6,2.9,1.1,7.5.2,10.6h0ZM369.79,108.85c-1.5.9-5,4.2-6.8,6.5.6,1.2.3,3,.4,4.8.4,5.5,6.1,7.4,6.1,7.4,2.4-3.7,2.8-3,3.8-4,.7-.8,1.4-2.1,1.3-3,.1-3.1.1-6.8.8-9.9,0,0-1-.8-.8-1.8.2-.6-.1-1.4-.4-1.6-.5-.2-3,.7-4.4,1.6ZM370.99,127.95c-.4-.5-1.5.8-1.6,1.1-1.1,2.4-2.8,6.8-2.2,8.8.5,1.4,2.7,1.7,3.5,1.8.9,1.1,2,.7,1.9.2-1.7-4.7-1.6-7.8-1.6-11.9h0ZM358.59,131.15c.3.5,1.3,1,1.7.3,1.2-2.6,2.3-5,3-7.1-.7-2.2-.8-4-.6-6.4.1-1.2-.5-2.3-1.3-1.1-2.2,2.6-4.2,5.5-5.2,8.6-.3,1,.9,1.6,1.5,2.2,1.3.9.3,2.5.9,3.5ZM367.39,104.55c.4-.1,1.1-2.6.9-3.4-.2-.5-1.2-.2-1.2.4-.2.9,0,3,.3,3h0ZM353.59,91.55c0,.6.9,1.3,1.3,2.5.8,2-.4,3.6.3,3.7,1.6.1,5.9.9,8.7,1.1,1.5,0,.7-1,.7-1-.3-.7-3-2.2-4.9-3.3-1.9-1.1-6-3.5-6.1-3h0ZM354.09,106.55l.2.2c2.6-1.6,10.2-4.1,10.2-4.1-.8-1.9.1-2.7-.2-2.9-.4-.4-8-1.5-9.2-.7.5,3.1,0,5.3-1,7.5ZM355.09,124.35c.4.2,4.2-7.7,12.8-15.1.3-.3-.1-.3-.1-.3-5.3,1.3-11.4,5.7-15.3,10.4-.7.8,2.3,5,2.6,5ZM342.59,88.25c1.2,4.4-.4,5.8.8,7.2.7.8,3.4.8,5.5,1.3.4.1,1.4.2,1.3-.4-.5-1.1-1-2.6-.9-4.1.1-1.6,1-1.9.7-2.9-.3-.6-2.8-1.5-4.2-2.2-2.2-1.2-3.5.4-3.2,1.1h0ZM348.39,97.25c-1.5-.1-4-.9-5,.1-.6.8.5,2.1.8,2.2,1.5.2,3.1-1,4.3-1.8.4-.3-.1-.5-.1-.5h0ZM329.29,80.45c.3,1.5,2.2,1.9,2.3,3.6,0,3.8,1.8,7.7,4.7,9.9.8.6,2.4,1.7,2.8,1.2.5-.5-.7-2.2-.8-3.2,1.3-1.4-.5-3.7-.7-5.8.2-.7.3-1.5,0-2.3-2-1.8-4.9-2.8-7.3-3.7-.3-.1-1-.2-1,.3ZM327.49,87.55c-.5-.7-.3-1.7-.7-2-.4-.2-5.2-.2-8.5.3-.6.1-2.4.6-2.2,1.2.5,1.4,4.2,4.1,4.2,4.1,2.5-.8,5.4-1.4,8.1-1.8,1.2-.6-.5-1.4-.9-1.8ZM326.49,82.05c-.7-.7-5.4-.4-5.5.8-.1.7.7,1.7,1.3,1.8,1.6.3,4.5.4,4.8-.2.2-.5-.4-2.2-.6-2.4h0ZM320.49,81.45c.7.1,3.6-.2,5.3-.6.6-.1.9-.8.5-1.4s-1.7-1.1-2.5-1.4c-1-.4-3.9-1.2-4.9-.6-.6.5.6,4,1.6,4ZM302.59,80.15c-.4-.2-1.3-.8-2-.2-.3.5,1.6,1.8,2.3,2.6,0,0,1.6-.9-.3-2.4ZM305.79,83.45c-.8-.8-1.7-.6-1.9-.3-.3.4,1.8,2.1,2,2.2,1-.2.4-1.4-.1-1.9ZM309.19,86.85c-.8-1-2.5-1-2.2-.2.2.7,1.7,2.6,2,2.5,0,0,1.7-.4.2-2.3ZM313.89,78.45c.7-.1.8-1.8-.9-2.1-1-.2-5,.1-5,1.3-.2.8.5,1.4,1.2,1.6,1.6-.6,3-.9,4.7-.8h0ZM310.09,79.95c-.1,1.1,1.2,1.9,1.5,2,1.1.6,2.7.2,3.6-.5.6-.4,1.1-1.7-1.1-2.4-.8-.3-3.8,0-4,.9ZM312.39,91.25c-1-1.4-2-.9-2-.5,0,.9,1.5,2.2,1.8,2.2.6-.1.5-1.2.2-1.7ZM315.89,86.05c.7-.4,1.8-.7,2.7-.9.7-.4.7-1.8.2-2.3-1.7-1.5-5.6,0-5.8.6-.3,1.4,2.2,2.9,2.9,2.6h0ZM317.29,96.05c-.9-.9-2.1-.9-2.3-.3-.1.3,2,3.1,2.5,2.8.6-.5.3-2-.2-2.5ZM322.19,101.65c-.9-1.1-2-.8-2.3-.1-.3.7,2,2.6,2,2.6.7.2,1.4-1.3.3-2.5ZM332.29,92.95c1-.4,0-2.7-1-2.9-3.3-.3-6.7.6-10.1,1.5-1.2.5.2,1.6.6,2.1.6.7,2.2,2.4,2.9,2.2,2.6-.8,5.1-1.9,7.6-2.9ZM327.19,106.35c-1-.9-2.4.5-2.2,1.4.2.6,2.1,1.9,2.7,1.6.2-.1.8-1.9-.5-3ZM329.79,102.15c2.4-1.3,5.3-3.8,8.3-5.2.5-.2,1.1-.6.4-1.1-4-2.2-8.2-2-12.5.6-.4.3-1.2,1.3-.3,1.8,2.3,1.2,3.1,4.4,4.1,3.9ZM332.59,110.45c-1.1-.5-1.8-.5-2,.1-.3,1.1,2.7,1.8,2.9,1.6.2-.2.2-1.3-.9-1.7ZM334.59,106.95c2.8-1.2,4.5-3,6.8-4.5l1.4-1.3c.1-1-1-1.2-1.7-1.8-.8-.9-.5-1.7-.6-2-.3-.4-.7-.6-1.2-.4-2.8,1.5-6,3.6-8.7,5.9-.3.3,0,1,.5,1.2,1.5.7,2.9,3.2,3.5,2.9h0ZM336.99,112.15c-1.2-.8-2.4-.2-2.4.4,0,.7,1.6,1,2.2.9.6-.2.7-.8.2-1.3h0ZM346.29,107.45c1.6-1.2,5.5-3.3,5.3-4.1-1.1-2.8,0-4.4-1.4-5.3-.7-.4-3.6,1.8-5.2,2.4-.1.6,1,1.4.4,1.9-1,.6-1.8-.3-2.5-.3-2.1,1.5-4.3,3.3-6.3,4.8-.5.5-.9.9-.1,1.3,1.9.4,2.7,1.4,3.7,2.3.8,1,4.1-1.6,6.1-3ZM351.89,105.25c-.3-.5-1.1,0-1.5.2-2.7,1.7-5.8,3.8-7.7,5.4-.3.3-.7.8-.1,1.1,1,.6,3.6-.9,5.1-1.8,1.3-.7,4.9-3.2,4.2-4.9ZM350.39,127.15c1,2.9,2.6,2.4,2.6,2.4.7-.3.8-2.3-.4-3.7,0-1.8-3-2.4-2.2,1.3ZM354.19,139.85c-1.1-1-2.7-1.3-2.8-.8-.4,1.5,3.5,3.2,3.7,3,0,0,.9-.5-.9-2.2h0ZM353.79,135.85c-.2-.3-.8-1.1-1.4-.8-1,.6-1.1,1.4-.4,2,4.3,3.3,4.6,2.5,4.6,2.5,1.4-1.8-2-2.5-2.8-3.7h0ZM361.89,147.15c-1.2-.7-3.1-1.7-3.7-.8s3.9,1.8,5.3,3.1c0,0,1.3-.6-1.6-2.3h0ZM360.59,140.75c-3-.9-3.5.9-3,2.4.6,1.8,2.5,1.4,4.9,2.9,1.7,1.2,2.2.8,2.2.8,2.3-.9-1.6-5.2-4.1-6.1h0ZM366.39,136.25c.4-2.9,2.4-7.1,2-7.8-.2-.6-3.1-2.8-4-2.9-1.1,0-1.2.9-1.7,1.9-.6,1.8-2.3,4.4-1.3,5.2.5.4,1.2.3,1.7.3,2.1.4,1.2,2.7,2.5,3.7.3.3.8,0,.8-.4ZM371.19,150.95c1.6.2,2.4,1,2.8.8.7-.3-.1-2.1-.2-2.4-.8-1.7-2.9-2.5-4.7-2.6-1,0-3.1.7-3.2,1.8.1,2.2,2.9,2,5.3,2.4h0ZM373.09,152.55c-1.9-.7-3-.9-5-.2-.7.3-.3.8,0,.8,2.5-.1,5,.5,7,1.8,0,0,1.4-.6-2-2.4h0ZM376.39,140.15c-1.9-4-3.2-8.4-4.3-12.7,0,0-.2-.7-.6-.2-.1,3.2.2,7.3.7,9.3.2.7,1.3,5.4,2.1,5,.8-.5,1.2.3,1.9.1.5-.1.5-.8.2-1.5h0ZM380.59,137.95c-2-4.5-4.3-8.6-6.9-12.7-.8-1.1-1.5.2-1.4.6,1.1,3.8,2.1,7.5,3.6,11.3.5,1.4,2.2,6.1,3.1,4.4l1.6-3.6h0ZM384.19,135.45c-3.7-7.3-7.1-15-6.7-23.6l.2-2.7c.2-.7-.7-2.2-1.2-.9-.9,3.1-1.1,8.5-1,13,0,.9-.7,1.8-1.1,2.3,2.8,5.4,6.7,13.9,9.4,14,0,0,.4-2.1.4-2.1ZM435.09,109.35c-.8.1-.9,1.1-.9,1.5-.1,1.5-2.9,4.5-.4,4.9,0,0,.6.4,2.8-5.1.3-.9-.2-1.6-1.5-1.3h0ZM430.99,101.45c-.5,3.3,1.7,6.1,3.1,5.6,0,0,3.2-1.1,1.8-6.5-2.4-6.1-6.7-1.7-4.9.9h0ZM427.59,107.35c.3-.8,1.1-2.1.3-2.7-2.8-1.9-6.3-2.8-9.9-3.5-1.5-.3-1.4,1-.6,1.8,1.6,1.8,2.5,3.3,3.1,5.6,1.9,1.2,4.3,2.3,7,3.6.7.3,1.4-.7,1.4-1.4,0-1.2-1.9-1.7-1.3-3.4ZM425.09,115.05c.4-.4,1.2-.7,1.4-1.4.5-1.3-2.6-2.2-4.3-3.2-1-.5-1.6-1.1-2.6-.4-.8.7-2.3,4.5-2.1,5,0,.8,4.3,2.9,6.3,4.9.2.3.9.3,1-.1.7-1.8-1.5-3,.3-4.8h0ZM427.39,96.35c-6.4-1.1-14.6-.5-20.4,2.1,0,0-.3.2.1.3,12.3.1,20.4,3.9,20.8,3.4.2-.2.6-5.6-.5-5.8h0ZM400.99,84.25c-.7,1.9,1.4,2.5,2.3,5.8.4.9,5.4,0,7.7-.1,2.8-.2,7.7-.2,7.7-1.7.4-1.6.5-3.1,1.9-4.9.4-.8-.2-1-1-1-2.9,0-6.1,0-9.1.1-.7.7-.8,2-2.1,2.2-.9,0-.4-1.6-.9-2-1.9.5-6.2.7-6.5,1.6h0ZM402.29,82.75c1.8-.2,4-.2,5.2-1.6.3-.3.4-2.3-.7-2.5-1.6-.3-3.4,2.3-4.7,3.6,0,0-.3.5.2.5ZM425.09,49.25c-.3-.7-2.3.2-3,.6-3.4,1.9-7.8,5.4-7.9,5.9-.2.6.7,1.3.6,2.3,0,.7-1.1,2.6.4,2.3,2.7-1.6,5.9-3.1,8.8-4.2,0,0,1.6-5.2,1.1-6.9h0ZM422.79,87.55c-.1.7.4,1.3,1.1.9.6-.4,1.8-1.8,1.4-2.4-.3-.5-1.9-.2-2.5,1.5ZM412.99,63.15c-.8.8-.2,3.7,1,3.4,3.1-1,6.2-1.8,9.1-3,.8-.3,1.1-3,1.2-4.1,0-.7.5-2.8-.9-2.3-3.8,1.6-7.6,3.3-10.4,6h0ZM410.29,73.75c-.3.9.5.8,1.1.7,3.8-.9,8.1-.8,11.3-1.3,1.3-.4-.2-3.9,1.1-6.7.5-1-.9-1.3-1.5-1.3-5.8.7-9.8,3.6-12,8.6h0ZM409.49,76.45c.1.4.9.9.8,2.3-.3,1-1.1,2.1-.4,2.9l2.2.1c3.1-.2,6,.1,9.4-.8.7-.2.3-3.4,1.3-5.2.3-.5.2-1.4-.5-1.5-4,0-8.4.3-12.1,1-.5.2-.8.7-.7,1.2ZM404.39,92.05c.4,2.1,5.4,1.7,7.2,1.4,2-.2,5.4-.9,6-2.1.3-.7-.4-.9-.9-.9-2.8-.1-7.2.2-10.8.7-.6.1-1.6.2-1.5.9ZM432.79,48.45c-.2-.3-1.5,0-1.4,2,0,.6.7,1.7,1.3,1.4.3-.2.8-2.6.1-3.4h0ZM434.19,35.55c.1-1.2.9-3.8.3-4-1-.1-1.5,1.1-1.7,1.6-.7,2.7,1.4,2.4,1.4,2.4ZM433.29,40.25c.1-.2.9-3.3.4-3.4-.4-.2-1.3.3-1.6,1.7-.1.7.1,2.3,1.2,1.7h0ZM431.29,44.15c-.1,2.7,1.8,1.9,1.8,1.9.3-.2.4-2.9.1-3.7-.3-1-1.9.3-1.9,1.8h0ZM431.59,60.85c.7-.1.8-4.2.4-4.5-.7-.3-1.7.6-1.9,2-.2.9.6,2.5,1.5,2.5ZM429.39,67.05c-.3,2,1.4,2.8,2,2.1,0,0,.8-3.5,0-3.9-.7-.4-1.9.2-2,1.8ZM429.59,78.05c.7-.1,1.6-2.7,1.4-3.4-.5-.9-2.7-1.2-3.1.4-.3,1.9,1.4,3.1,1.7,3h0ZM425.79,82.65c-.8,1.2-.1,2.2.3,2.3.4,0,2.6-2.8,1.6-3.6-.6-.5-1.3.1-1.9,1.3h0ZM421.19,39.85c1.5-1.3,3.1-2.1,4.9-2.7.4-.7.7-1.7.1-2.3-.9-1.1-4.8,1.6-5.6,2.4-1.4,1.5-.1,3.1.6,2.6ZM425.79,38.45c-.8-.7-3.8,1.3-4.4,2.1-1.5,2.2-.2,3,.6,3,1.4,0,3.1-.8,3.7-2.1.2-.4.9-2.1.1-3h0ZM419.59,47.35c-.1.9.9,2.2,1.8,2.1.9-.5,2.2-1.1,3.1-1.3.9-.1,2.2-3.4.9-4.4-.5-.4-5.2,1.1-5.8,3.6ZM417.69,49.05c-1-1-5.6,2.2-5.8,3.3,0,.3.6,2.4,1.1,2.6.8.3,3.4-1.9,4.7-3.3.4-.5.5-2,0-2.6ZM410.39,49.85c.1.8.8,1.2,1.4.9,1.8-.9,4.8-2.7,5.4-3.3.8-.8-.5-4.8-1.3-4.8-1.4.2-3.6,3-4.1,4-.5.9-1.4,2.3-1.4,3.2h0ZM402.89,62.05c.3,1,.9,1.6,1.6,2.2,1.3,2,1.2,5.4,3.3,5.7.6,1,.7,3.5,1.5,3.5.7.2,1.4-2,1.7-3.1,1.2-4.2.2-9-2.4-12.5-1-1.6.4-3.3-.3-4.9-.3-.5-.9.2-1.1.4-1.7,2.6-3.6,5.6-4.3,8.7ZM395.19,76.15c.4,1.1,1.5.7,2.6,2.1,1.2,1.3,1.7,3.1,2.1,4.4.2.6,1.1-.2,1.4-.5,1.6-2,4.1-4.1,4.2-5.3.1-2.2-2.3-2.2-4.2-7.2-.2-.8-2.5-1.3-3.7,1.4-.8,1.7-2.6,4.3-2.4,5.1h0ZM396.09,87.65c.6-.6-1.6-1.2-2.2-3.6-.4-1.4-.1-2.7-.6-3.3-.3-.4-2.5,4.9-3.5,7.2-1,2.5-2.5,5.7-2.3,6.6,0,0,0,1.5,1.3.4,2.4-2.2,5.9-6,7.3-7.3ZM390.89,98.95s8.7-3.3,12.2-3.8l.1-.1h.2c.3-.1-.6-2-1.4-2.6-.4-.5-1.5,0-1.3.5.1.2.2.4.4.7-1.5-1.2-2.8-2.7-4-4.9-1.6.2-7.9,6.6-8,7.4-.1.4,1.2.4,1.8,2.8ZM399.49,122.25c-2.8-4.6-5-9.8-6.9-15,0,0-.3-.8-.7-.1,0,4,.9,9,1.7,11.3.3.8,2.3,6.5,3.3,5.9,1-.9,1.6.1,2.5-.3.7-.2.7-1,.1-1.8h0ZM404.09,115.05c-.6-.2-1.8-.5-2.3-1.2-2.5-3.6-5.9-7.8-8.5-9.7-1.2-.6-1.2,1.1-.6,1.6l1.8,2c5.3,6.6,6.5,15.1,7.2,23.5l1.6,1.4c2.5-2,1.3-11.4.8-17.6ZM412.69,115.05s4.3-5.3,1.4-10c-.9-1.6-2.3-2.8-2.3-4.1-3.1-.6-8.2-.9-10.2-.6-1.8.2-4.7,1.2-5,1.7-.2.4-.1,1.2.5,1.5.8.7.3,2,.3,2,2.4,2,4.5,4.9,6.4,7.4.5.8,1.9,1.4,3.1,1.5,1.4.1,1.3-.7,5.8.6ZM414.29,128.95c-.9-4-2-7.7-3.2-11.5-.1-.4-1.6-.9-1.7.5,0,5,.1,9.8.8,14.8l3.6,1.8c1.8.8.8-4.2.5-5.6h0ZM417.29,123.95c-.6-1.9-2.7-5.5-4.7-7.9-.6-.2-.4.5-.4.5,1.5,4.2,2.7,8.7,3.3,13.1.1.8.5,1.3,1,1.1.8-.3.7-1.3,1.8-1.4,1-.2-.8-4.8-1-5.4h0ZM422.79,121.55c-.6-2-4.7-4.4-7.1-5.6-.3-.1-2.1-.4-2.2.3,2.4,3.2,4.3,5.6,5.4,10.6.1.4,1.4.1,1.7-1.5.7-.6,2.6-2.3,2.2-3.8h0ZM426.49,134.75c2.1-1.9,4.9-3.7,3.6-5.5-.6-.8-3,.1-3.9.8-1.8,1.2-3.2,3.3-3,5.2.1.4.3,2.3,1.2,2,.5-.1.8-1.2,2.1-2.5h0ZM430.29,133.75c-2.2.9-3.2,1.8-4.6,3.6-2.2,3.8-.5,3.3-.5,3.3,1.2-2.4,3.2-4.6,5.5-6.2.4-.2.5-.9-.4-.7ZM431.89,124.95c1.5-2.8,3.5-3.8,3-5.6-.4-1.5-1.9-2.6-4.2.1-1.9,2.4-3.1,8.5-.4,7.7,0,0,.7,0,1.6-2.2h0ZM436.09,122.35c-1.1-.3-2.2,1.7-3,3.1-1.7,3.3-.2,2.9-.2,2.9.7-2,4.3-5.7,3.2-6ZM438.39,111.85c-.4-.3-1.8.9-2.3,2.5-.7,2.6.5,2.3.5,2.3.3.1,2.9-3.9,1.8-4.8ZM403.19,95.05c-.5-.2-1.5-.8-2.1-1.4.67.47,1.37.87,2.1,1.2v.2Z"/>
  <polygon class="st1" points="287.46 76.92 287.19 58.22 304.78 66.48 287.46 76.92"/>
  <path class="st0" d="M48.65,31.32c-.21.77-.91,1.09-1.27,1.68-.16.53-.32,1.07-.47,1.62-.83,1.48-2.8,2.92-4.28,3.81-1.62.94-3.57.3-4.87-.47-2.07-1.24-4.4-2.6-5.75-4.54-.33-.69-.67-1.39-1-2.09h-.06v.15c-.06.26-.11.52-.15.8-.14-.08-.27-.17-.41-.27,1.36,2.71,1.48,6.88.62,10.24-4.96,1.98-10.68-.97-12.84-3.81-.71-.94-1.77-2.33-1.42-4.22.24-1.12.89-1.92,1.42-2.74-.59.12-2.12.38-2.89.12-.57-.45-1.14-.91-1.71-1.39-2.71-2.15-4.54-5.25-7.29-7.35-.97-.74-3.63-2.54-2.57-4.28,2.54-1.03,5.96-.12,8.23.65,4.1,1.45,8.06,2.95,11.57,5.02,1.32.89,2.63,1.76,3.95,2.63h.06v-.41c-.32-.74-1.06-1.42-.94-2.33.08-.08.15-.17.21-.27.14.02.27.04.41.06.91.5.71,1.98,1.74,2.48h.06c.91-6.26,5.55-12.36,8.82-16.52,1.62-2.07,2.86-3.66,5.4-4.87,2.45,0,2.83,2.8,2.42,5.34-.38,2.45-.35,5.16-.32,7.91.06.74.12,1.5.21,2.27-.3,1.12-1.95,2.36-3.16,2.6.02.04.04.08.06.12,3.66.24,5.43,1.68,6.17,4.96.18.86.32,2.21.06,3.13h0ZM25.37,28.9c-.44.27-1.48,1.24-2.01,1.92.18.35.09.89.12,1.42.12,1.62,1.8,2.18,1.8,2.18.71-1.09.83-.89,1.12-1.18.21-.24.41-.62.38-.89.03-.91.03-2.01.24-2.92,0,0-.3-.24-.24-.53.06-.18-.03-.41-.12-.47-.15-.06-.89.21-1.3.47ZM25.73,34.54c-.12-.15-.44.24-.47.32-.32.71-.83,2.01-.65,2.6.15.41.8.5,1.03.53.27.32.59.21.56.06-.5-1.39-.47-2.3-.47-3.51h0ZM22.07,35.48c.09.15.38.3.5.09.35-.77.68-1.48.89-2.09-.21-.65-.24-1.18-.18-1.89.03-.35-.15-.68-.38-.32-.65.77-1.24,1.62-1.53,2.54-.09.3.27.47.44.65.38.27.09.74.27,1.03ZM24.66,27.63c.12-.03.32-.77.27-1-.06-.15-.35-.06-.35.12-.06.27,0,.89.09.89h0ZM20.59,23.8c0,.18.27.38.38.74.24.59-.12,1.06.09,1.09.47.03,1.74.27,2.57.32.44,0,.21-.3.21-.3-.09-.21-.89-.65-1.45-.97-.56-.32-1.77-1.03-1.8-.89h0ZM20.74,28.22l.06.06c.77-.47,3.01-1.21,3.01-1.21-.24-.56.03-.8-.06-.86-.12-.12-2.36-.44-2.71-.21.15.91,0,1.56-.3,2.21ZM21.04,33.47c.12.06,1.24-2.27,3.78-4.46.09-.09-.03-.09-.03-.09-1.56.38-3.36,1.68-4.51,3.07-.21.24.68,1.48.77,1.48ZM17.35,22.82c.35,1.3-.12,1.71.24,2.12.21.24,1,.24,1.62.38.12.03.41.06.38-.12-.15-.32-.3-.77-.27-1.21.03-.47.3-.56.21-.86-.09-.18-.83-.44-1.24-.65-.65-.35-1.03.12-.94.32h0ZM19.06,25.48c-.44-.03-1.18-.27-1.48.03-.18.24.15.62.24.65.44.06.91-.3,1.27-.53.12-.09-.03-.15-.03-.15h0ZM13.42,20.52c.09.44.65.56.68,1.06,0,1.12.53,2.27,1.39,2.92.24.18.71.5.83.35.15-.15-.21-.65-.24-.94.38-.41-.15-1.09-.21-1.71.06-.21.09-.44,0-.68-.59-.53-1.45-.83-2.15-1.09-.09-.03-.3-.06-.3.09ZM12.89,22.62c-.15-.21-.09-.5-.21-.59-.12-.06-1.53-.06-2.51.09-.18.03-.71.18-.65.35.15.41,1.24,1.21,1.24,1.21.74-.24,1.59-.41,2.39-.53.35-.18-.15-.41-.27-.53ZM12.6,20.99c-.21-.21-1.59-.12-1.62.24-.03.21.21.5.38.53.47.09,1.33.12,1.42-.06.06-.15-.12-.65-.18-.71h0ZM10.83,20.82c.21.03,1.06-.06,1.56-.18.18-.03.27-.24.15-.41s-.5-.32-.74-.41c-.3-.12-1.15-.35-1.45-.18-.18.15.18,1.18.47,1.18ZM5.54,20.43c-.12-.06-.38-.24-.59-.06-.09.15.47.53.68.77,0,0,.47-.27-.09-.71ZM6.49,21.41c-.24-.24-.5-.18-.56-.09-.09.12.53.62.59.65.3-.06.12-.41-.03-.56ZM7.49,22.41c-.24-.3-.74-.3-.65-.06.06.21.5.77.59.74,0,0,.5-.12.06-.68ZM8.88,19.93c.21-.03.24-.53-.27-.62-.3-.06-1.48.03-1.48.38-.06.24.15.41.35.47.47-.18.89-.27,1.39-.24h0ZM7.76,20.37c-.03.32.35.56.44.59.32.18.8.06,1.06-.15.18-.12.32-.5-.32-.71-.24-.09-1.12,0-1.18.27ZM8.44,23.71c-.3-.41-.59-.27-.59-.15,0,.27.44.65.53.65.18-.03.15-.35.06-.5ZM9.47,22.17c.21-.12.53-.21.8-.27.21-.12.21-.53.06-.68-.5-.44-1.65,0-1.71.18-.09.41.65.86.86.77h0ZM9.88,25.12c-.27-.27-.62-.27-.68-.09-.03.09.59.91.74.83.18-.15.09-.59-.06-.74ZM11.33,26.78c-.27-.32-.59-.24-.68-.03-.09.21.59.77.59.77.21.06.41-.38.09-.74ZM14.31,24.21c.3-.12,0-.8-.3-.86-.97-.09-1.98.18-2.98.44-.35.15.06.47.18.62.18.21.65.71.86.65.77-.24,1.5-.56,2.24-.86ZM12.8,28.16c-.3-.27-.71.15-.65.41.06.18.62.56.8.47.06-.03.24-.56-.15-.89ZM13.57,26.92c.71-.38,1.56-1.12,2.45-1.53.15-.06.32-.18.12-.32-1.18-.65-2.42-.59-3.69.18-.12.09-.35.38-.09.53.68.35.91,1.3,1.21,1.15ZM14.4,29.37c-.32-.15-.53-.15-.59.03-.09.32.8.53.86.47.06-.06.06-.38-.27-.5ZM14.99,28.34c.83-.35,1.33-.89,2.01-1.33l.41-.38c.03-.3-.3-.35-.5-.53-.24-.27-.15-.5-.18-.59-.09-.12-.21-.18-.35-.12-.83.44-1.77,1.06-2.57,1.74-.09.09,0,.3.15.35.44.21.86.94,1.03.86h0ZM15.69,29.87c-.35-.24-.71-.06-.71.12,0,.21.47.3.65.27.18-.06.21-.24.06-.38h0ZM18.44,28.49c.47-.35,1.62-.97,1.56-1.21-.32-.83,0-1.3-.41-1.56-.21-.12-1.06.53-1.53.71-.03.18.3.41.12.56-.3.18-.53-.09-.74-.09-.62.44-1.27.97-1.86,1.42-.15.15-.27.27-.03.38.56.12.8.41,1.09.68.24.3,1.21-.47,1.8-.89ZM20.09,27.84c-.09-.15-.32,0-.44.06-.8.5-1.71,1.12-2.27,1.59-.09.09-.21.24-.03.32.3.18,1.06-.27,1.5-.53.38-.21,1.45-.94,1.24-1.45ZM19.65,34.3c.3.86.77.71.77.71.21-.09.24-.68-.12-1.09,0-.53-.89-.71-.65.38ZM20.77,38.05c-.32-.3-.8-.38-.83-.24-.12.44,1.03.94,1.09.89,0,0,.27-.15-.27-.65h0ZM20.65,36.87c-.06-.09-.24-.32-.41-.24-.3.18-.32.41-.12.59,1.27.97,1.36.74,1.36.74.41-.53-.59-.74-.83-1.09h0ZM23.04,40.2c-.35-.21-.91-.5-1.09-.24s1.15.53,1.56.91c0,0,.38-.18-.47-.68h0ZM22.66,38.31c-.89-.27-1.03.27-.89.71.18.53.74.41,1.45.86.5.35.65.24.65.24.68-.27-.47-1.53-1.21-1.8h0ZM24.37,36.99c.12-.86.71-2.09.59-2.3-.06-.18-.91-.83-1.18-.86-.32,0-.35.27-.5.56-.18.53-.68,1.3-.38,1.53.15.12.35.09.5.09.62.12.35.8.74,1.09.09.09.24,0,.24-.12ZM25.79,41.32c.47.06.71.3.83.24.21-.09-.03-.62-.06-.71-.24-.5-.86-.74-1.39-.77-.3,0-.91.21-.94.53.03.65.86.59,1.56.71h0ZM26.35,41.79c-.56-.21-.89-.27-1.48-.06-.21.09-.09.24,0,.24.74-.03,1.48.15,2.07.53,0,0,.41-.18-.59-.71h0ZM27.32,38.14c-.56-1.18-.94-2.48-1.27-3.75,0,0-.06-.21-.18-.06-.03.94.06,2.15.21,2.74.06.21.38,1.59.62,1.48.24-.15.35.09.56.03.15-.03.15-.24.06-.44h0ZM28.56,37.49c-.59-1.33-1.27-2.54-2.04-3.75-.24-.32-.44.06-.41.18.32,1.12.62,2.21,1.06,3.33.15.41.65,1.8.91,1.3l.47-1.06h0ZM29.62,36.75c-1.09-2.15-2.09-4.43-1.98-6.96l.06-.8c.06-.21-.21-.65-.35-.27-.27.91-.32,2.51-.3,3.84,0,.27-.21.53-.32.68.83,1.59,1.98,4.1,2.77,4.13,0,0,.12-.62.12-.62ZM44.64,29.05c-.24.03-.27.32-.27.44-.03.44-.86,1.33-.12,1.45,0,0,.18.12.83-1.5.09-.27-.06-.47-.44-.38h0ZM43.43,26.72c-.15.97.5,1.8.91,1.65,0,0,.94-.32.53-1.92-.71-1.8-1.98-.5-1.45.27h0ZM42.43,28.46c.09-.24.32-.62.09-.8-.83-.56-1.86-.83-2.92-1.03-.44-.09-.41.3-.18.53.47.53.74.97.91,1.65.56.35,1.27.68,2.07,1.06.21.09.41-.21.41-.41,0-.35-.56-.5-.38-1ZM41.69,30.73c.12-.12.35-.21.41-.41.15-.38-.77-.65-1.27-.94-.3-.15-.47-.32-.77-.12-.24.21-.68,1.33-.62,1.48,0,.24,1.27.86,1.86,1.45.06.09.27.09.3-.03.21-.53-.44-.89.09-1.42h0ZM42.37,25.21c-1.89-.32-4.31-.15-6.02.62,0,0-.09.06.03.09,3.63.03,6.02,1.15,6.14,1,.06-.06.18-1.65-.15-1.71h0ZM34.58,21.64c-.21.56.41.74.68,1.71.12.27,1.59,0,2.27-.03.83-.06,2.27-.06,2.27-.5.12-.47.15-.91.56-1.45.12-.24-.06-.3-.3-.3-.86,0-1.8,0-2.69.03-.21.21-.24.59-.62.65-.27,0-.12-.47-.27-.59-.56.15-1.83.21-1.92.47h0ZM34.96,21.2c.53-.06,1.18-.06,1.53-.47.09-.09.12-.68-.21-.74-.47-.09-1,.68-1.39,1.06,0,0-.09.15.06.15ZM41.69,11.31c-.09-.21-.68.06-.89.18-1,.56-2.3,1.59-2.33,1.74-.06.18.21.38.18.68,0,.21-.32.77.12.68.8-.47,1.74-.91,2.6-1.24,0,0,.47-1.53.32-2.04h0ZM41.01,22.62c-.03.21.12.38.32.27.18-.12.53-.53.41-.71-.09-.15-.56-.06-.74.44ZM38.12,15.42c-.24.24-.06,1.09.3,1,.91-.3,1.83-.53,2.69-.89.24-.09.32-.89.35-1.21,0-.21.15-.83-.27-.68-1.12.47-2.24.97-3.07,1.77h0ZM37.32,18.54c-.09.27.15.24.32.21,1.12-.27,2.39-.24,3.33-.38.38-.12-.06-1.15.32-1.98.15-.3-.27-.38-.44-.38-1.71.21-2.89,1.06-3.54,2.54h0ZM37.09,19.34c.03.12.27.27.24.68-.09.3-.32.62-.12.86l.65.03c.91-.06,1.77.03,2.77-.24.21-.06.09-1,.38-1.53.09-.15.06-.41-.15-.44-1.18,0-2.48.09-3.57.3-.15.06-.24.21-.21.35ZM35.58,23.94c.12.62,1.59.5,2.12.41.59-.06,1.59-.27,1.77-.62.09-.21-.12-.27-.27-.27-.83-.03-2.12.06-3.19.21-.18.03-.47.06-.44.27ZM43.96,11.08c-.06-.09-.44,0-.41.59,0,.18.21.5.38.41.09-.06.24-.77.03-1h0ZM44.37,7.27c.03-.35.27-1.12.09-1.18-.3-.03-.44.32-.5.47-.21.8.41.71.41.71ZM44.11,8.66c.03-.06.27-.97.12-1-.12-.06-.38.09-.47.5-.03.21.03.68.35.5h0ZM43.52,9.81c-.03.8.53.56.53.56.09-.06.12-.86.03-1.09-.09-.3-.56.09-.56.53h0ZM43.61,14.74c.21-.03.24-1.24.12-1.33-.21-.09-.5.18-.56.59-.06.27.18.74.44.74ZM42.96,16.57c-.09.59.41.83.59.62,0,0,.24-1.03,0-1.15-.21-.12-.56.06-.59.53ZM43.02,19.81c.21-.03.47-.8.41-1-.15-.27-.8-.35-.91.12-.09.56.41.91.5.89h0ZM41.9,21.17c-.24.35-.03.65.09.68.12,0,.77-.83.47-1.06-.18-.15-.38.03-.56.38h0ZM40.54,8.54c.44-.38.91-.62,1.45-.8.12-.21.21-.5.03-.68-.27-.32-1.42.47-1.65.71-.41.44-.03.91.18.77ZM41.9,8.13c-.24-.21-1.12.38-1.3.62-.44.65-.06.89.18.89.41,0,.91-.24,1.09-.62.06-.12.27-.62.03-.89h0ZM40.07,10.75c-.03.27.27.65.53.62.27-.15.65-.32.91-.38.27-.03.65-1,.27-1.3-.15-.12-1.53.32-1.71,1.06ZM39.51,11.26c-.3-.3-1.65.65-1.71.97,0,.09.18.71.32.77.24.09,1-.56,1.39-.97.12-.15.15-.59,0-.77ZM37.35,11.49c.03.24.24.35.41.27.53-.27,1.42-.8,1.59-.97.24-.24-.15-1.42-.38-1.42-.41.06-1.06.89-1.21,1.18-.15.27-.41.68-.41.94h0ZM35.14,15.09c.09.3.27.47.47.65.38.59.35,1.59.97,1.68.18.3.21,1.03.44,1.03.21.06.41-.59.5-.91.35-1.24.06-2.66-.71-3.69-.3-.47.12-.97-.09-1.45-.09-.15-.27.06-.32.12-.5.77-1.06,1.65-1.27,2.57ZM32.87,19.25c.12.32.44.21.77.62.35.38.5.91.62,1.3.06.18.32-.06.41-.15.47-.59,1.21-1.21,1.24-1.56.03-.65-.68-.65-1.24-2.12-.06-.24-.74-.38-1.09.41-.24.5-.77,1.27-.71,1.5h0ZM33.13,22.65c.18-.18-.47-.35-.65-1.06-.12-.41-.03-.8-.18-.97-.09-.12-.74,1.45-1.03,2.12-.3.74-.74,1.68-.68,1.95,0,0,0,.44.38.12.71-.65,1.74-1.77,2.15-2.15ZM31.6,25.98s2.57-.97,3.6-1.12l.03-.03h.06c.09-.03-.18-.59-.41-.77-.12-.15-.44,0-.38.15.03.06.06.12.12.21-.44-.35-.83-.8-1.18-1.45-.47.06-2.33,1.95-2.36,2.18-.03.12.35.12.53.83ZM34.14,32.85c-.83-1.36-1.48-2.89-2.04-4.43,0,0-.09-.24-.21-.03,0,1.18.27,2.66.5,3.33.09.24.68,1.92.97,1.74.3-.27.47.03.74-.09.21-.06.21-.3.03-.53h0ZM35.49,30.73c-.18-.06-.53-.15-.68-.35-.74-1.06-1.74-2.3-2.51-2.86-.35-.18-.35.32-.18.47l.53.59c1.56,1.95,1.92,4.46,2.12,6.93l.47.41c.74-.59.38-3.36.24-5.19ZM38.03,30.73s1.27-1.56.41-2.95c-.27-.47-.68-.83-.68-1.21-.91-.18-2.42-.27-3.01-.18-.53.06-1.39.35-1.48.5-.06.12-.03.35.15.44.24.21.09.59.09.59.71.59,1.33,1.45,1.89,2.18.15.24.56.41.91.44.41.03.38-.21,1.71.18ZM38.5,34.83c-.27-1.18-.59-2.27-.94-3.39-.03-.12-.47-.27-.5.15,0,1.48.03,2.89.24,4.37l1.06.53c.53.24.24-1.24.15-1.65h0ZM39.39,33.36c-.18-.56-.8-1.62-1.39-2.33-.18-.06-.12.15-.12.15.44,1.24.8,2.57.97,3.87.03.24.15.38.3.32.24-.09.21-.38.53-.41.3-.06-.24-1.42-.3-1.59h0ZM41.01,32.65c-.18-.59-1.39-1.3-2.09-1.65-.09-.03-.62-.12-.65.09.71.94,1.27,1.65,1.59,3.13.03.12.41.03.5-.44.21-.18.77-.68.65-1.12h0ZM42.1,36.54c.62-.56,1.45-1.09,1.06-1.62-.18-.24-.89.03-1.15.24-.53.35-.94.97-.89,1.53.03.12.09.68.35.59.15-.03.24-.35.62-.74h0ZM43.22,36.25c-.65.27-.94.53-1.36,1.06-.65,1.12-.15.97-.15.97.35-.71.94-1.36,1.62-1.83.12-.06.15-.27-.12-.21ZM43.7,33.65c.44-.83,1.03-1.12.89-1.65-.12-.44-.56-.77-1.24.03-.56.71-.91,2.51-.12,2.27,0,0,.21,0,.47-.65h0ZM44.94,32.88c-.32-.09-.65.5-.89.91-.5.97-.06.86-.06.86.21-.59,1.27-1.68.94-1.77ZM45.61,29.79c-.12-.09-.53.27-.68.74-.21.77.15.68.15.68.09.03.86-1.15.53-1.42ZM35.23,24.83c-.15-.06-.44-.24-.62-.41.2.14.4.26.62.35v.06Z"/>
  <polygon class="st1" points="1.08 19.48 1 13.96 6.19 16.4 1.08 19.48"/>
</svg>